<svg width="34" height="34" viewBox="0 0 34 34" fill="none" xmlns="http://www.w3.org/2000/svg">
<path d="M0 12C0 5.37258 5.37258 0 12 0H22C28.6274 0 34 5.37258 34 12V22C34 28.6274 28.6274 34 22 34H12C5.37258 34 0 28.6274 0 22V12Z" fill="#E47B83"/>
<path fill-rule="evenodd" clip-rule="evenodd" d="M17 18.6666C16.54 18.6666 16.1666 19.04 16.1666 19.5C16.1666 19.96 16.54 20.3333 17 20.3333C17.46 20.3333 17.8333 19.96 17.8333 19.5C17.8333 19.04 17.46 18.6666 17 18.6666ZM17 22C15.6216 22 14.5 20.8783 14.5 19.5C14.5 18.1216 15.6216 17 17 17C18.3783 17 19.5 18.1216 19.5 19.5C19.5 20.8783 18.3783 22 17 22ZM21.1666 13.6666H15.3333V12C15.3333 11.0808 16.0808 10.3333 17 10.3333C17.9191 10.3333 18.6666 11.0808 18.6666 12C18.6666 12.4608 19.0391 12.8333 19.5 12.8333C19.9608 12.8333 20.3333 12.4608 20.3333 12C20.3333 10.1616 18.8383 8.66663 17 8.66663C15.1616 8.66663 13.6666 10.1616 13.6666 12V13.6666H12.8333C11.455 13.6666 10.3333 14.7883 10.3333 16.1666V22.8333C10.3333 24.2116 11.455 25.3333 12.8333 25.3333H21.1666C22.545 25.3333 23.6666 24.2116 23.6666 22.8333V16.1666C23.6666 14.7883 22.545 13.6666 21.1666 13.6666Z" fill="white"/>
</svg>
